<?xml version="1.0" standalone="no"?>
<!DOCTYPE svg PUBLIC "-//W3C//DTD SVG 20010904//EN"
 "http://www.w3.org/TR/2001/REC-SVG-20010904/DTD/svg10.dtd">
<svg version="1.0" xmlns="http://www.w3.org/2000/svg"
 width="1032.000000pt" height="1032.000000pt" viewBox="0 0 1032.000000 1032.000000"
 preserveAspectRatio="xMidYMid meet">
<metadata>
Created by potrace 1.11, written by Peter Selinger 2001-2013
</metadata>
<g transform="translate(0.000000,1032.000000) scale(0.100000,-0.100000)"
fill="#000000" stroke="none">
<path d="M4815 10304 c-27 -8 -58 -16 -67 -19 -34 -8 -109 -44 -155 -76 -152
-105 -251 -250 -288 -422 -13 -63 -14 -258 -12 -1512 l2 -1440 24 -70 c72
-215 222 -367 432 -441 l84 -29 1440 -2 c1568 -3 1511 -5 1640 53 176 77 315
231 373 414 l27 85 0 1465 0 1465 -28 79 c-40 117 -82 182 -172 271 -90 89
-176 139 -305 174 -74 21 -88 21 -1510 20 -1219 -1 -1443 -3 -1485 -15z"/>
<path d="M532 8279 c-107 -27 -214 -81 -269 -135 -7 -7 -23 -21 -36 -31 -54
-42 -159 -209 -172 -273 -2 -8 -4 -15 -5 -15 -1 0 -3 -7 -5 -15 -2 -8 -7 -26
-12 -40 -13 -42 -16 -2886 -3 -2950 24 -114 66 -203 141 -299 80 -102 177
-169 318 -219 l76 -27 1435 -2 c1537 -3 1502 -4 1630 47 188 74 349 259 400
458 6 23 8 47 5 52 -3 5 -1 11 5 15 6 4 10 485 9 1438 0 1389 -1 1434 -20
1507 -59 227 -215 395 -444 478 -83 30 -181 32 -1569 31 -1338 -1 -1415 -2
-1484 -20z"/>
<path d="M6815 6035 c-249 -55 -445 -240 -512 -485 -17 -61 -18 -152 -18
-1520 0 -1386 1 -1458 18 -1515 22 -69 67 -168 79 -173 4 -2 8 -10 8 -17 0
-18 148 -169 190 -194 58 -34 112 -59 180 -83 l65 -23 1440 -2 c1231 -1 1449
1 1505 13 36 8 73 17 84 19 65 15 203 104 272 177 76 78 145 209 171 320 10
43 10 2924 0 2963 -49 188 -140 323 -287 421 -59 40 -147 80 -195 90 -11 2
-31 7 -45 11 -14 4 -671 8 -1460 9 -1160 2 -1447 0 -1495 -11z"/>
<path d="M2618 4025 c-2 -3 -22 -7 -44 -10 -62 -9 -160 -51 -234 -100 -147
-97 -252 -253 -285 -427 -10 -56 -13 -348 -12 -1501 2 -1371 3 -1435 21 -1494
10 -35 23 -63 28 -63 5 0 7 -4 4 -9 -11 -17 63 -136 130 -209 36 -40 69 -71
71 -68 3 3 13 -3 22 -14 25 -29 152 -89 238 -110 74 -19 119 -20 1499 -20
1420 0 1424 0 1501 21 81 22 166 57 171 71 2 5 7 6 11 4 4 -3 22 8 39 23 17
16 33 27 35 25 7 -7 116 113 150 167 44 69 62 113 86 206 18 70 19 133 17
1516 -1 793 -5 1455 -9 1471 -5 16 -12 37 -17 46 -5 10 -6 20 -3 24 3 3 0 6
-7 6 -7 0 -11 3 -8 6 9 9 -19 72 -60 134 -37 57 -140 170 -154 170 -5 0 -18 9
-30 20 -26 24 -134 78 -170 84 -15 3 -32 7 -38 11 -5 3 -20 9 -32 13 -25 7
-2913 14 -2920 7z"/>
</g>
</svg>
